<svg width="820" height="280" xmlns="http://www.w3.org/2000/svg" xmlns:xlink="http://www.w3.org/1999/xlink" overflow="hidden"><defs><clipPath id="clip0"><rect x="0" y="0" width="960" height="720"/></clipPath></defs><g clip-path="url(#clip0)"><rect x="0" y="0" width="960" height="720" fill="#FFFFFF"/><rect x="216.5" y="29.5001" width="38" height="19" stroke="#000000" stroke-width="1.33333" stroke-miterlimit="8" fill="#C5E0B4"/><rect x="254.5" y="29.5001" width="38" height="19" stroke="#000000" stroke-width="1.33333" stroke-miterlimit="8" fill="#C5E0B4"/><rect x="292.5" y="29.5001" width="38" height="19" stroke="#000000" stroke-width="1.33333" stroke-miterlimit="8" fill="#C5E0B4"/><rect x="367.5" y="29.5001" width="38" height="19" stroke="#000000" stroke-width="1.33333" stroke-miterlimit="8" fill="#C5E0B4"/><rect x="405.5" y="29.5001" width="38" height="19" stroke="#000000" stroke-width="1.33333" stroke-miterlimit="8" fill="#C5E0B4"/><rect x="443.5" y="29.5001" width="38" height="19" stroke="#000000" stroke-width="1.33333" stroke-miterlimit="8" fill="#C5E0B4"/><rect x="594.5" y="29.5001" width="38" height="19" stroke="#000000" stroke-width="1.33333" stroke-miterlimit="8" fill="#C5E0B4"/><rect x="632.5" y="29.5001" width="38" height="19" stroke="#000000" stroke-width="1.33333" stroke-miterlimit="8" fill="#C5E0B4"/><rect x="670.5" y="29.5001" width="38" height="19" stroke="#000000" stroke-width="1.33333" stroke-miterlimit="8" fill="#C5E0B4"/><text font-family="Segoe UI,Segoe UI_MSFontService,sans-serif" font-weight="400" font-size="21" transform="translate(35.9333 47)">Text #1</text><rect x="216.5" y="65.5001" width="38" height="19" stroke="#000000" stroke-width="1.33333" stroke-miterlimit="8" fill="#C5E0B4"/><rect x="254.5" y="65.5001" width="38" height="19" stroke="#000000" stroke-width="1.33333" stroke-miterlimit="8" fill="#C5E0B4"/><rect x="292.5" y="65.5001" width="38" height="19" stroke="#000000" stroke-width="1.33333" stroke-miterlimit="8" fill="#C5E0B4"/><rect x="367.5" y="65.5001" width="38" height="19" stroke="#000000" stroke-width="1.33333" stroke-miterlimit="8" fill="#C5E0B4"/><rect x="405.5" y="65.5001" width="38" height="19" stroke="#000000" stroke-width="1.33333" stroke-miterlimit="8" fill="#C5E0B4"/><rect x="443.5" y="65.5001" width="38" height="19" stroke="#000000" stroke-width="1.33333" stroke-miterlimit="8" fill="#C5E0B4"/><rect x="594.5" y="65.5001" width="38" height="19" stroke="#000000" stroke-width="1.33333" stroke-miterlimit="8" fill="#C5E0B4"/><rect x="632.5" y="65.5001" width="38" height="19" stroke="#000000" stroke-width="1.33333" stroke-miterlimit="8" fill="#C5E0B4"/><rect x="670.5" y="65.5001" width="38" height="19" stroke="#000000" stroke-width="1.33333" stroke-miterlimit="8" fill="#C5E0B4"/><text font-family="Segoe UI,Segoe UI_MSFontService,sans-serif" font-weight="400" font-size="21" transform="translate(35.9333 82)">Text #2<tspan font-family="Cambria Math,Cambria Math_MSFontService,sans-serif" font-size="21" x="30.1833" y="36">â‹®</tspan></text><rect x="216.5" y="136.5" width="38" height="19" stroke="#000000" stroke-width="1.33333" stroke-miterlimit="8" fill="#C5E0B4"/><rect x="254.5" y="136.5" width="38" height="19" stroke="#000000" stroke-width="1.33333" stroke-miterlimit="8" fill="#C5E0B4"/><rect x="292.5" y="136.5" width="38" height="19" stroke="#000000" stroke-width="1.33333" stroke-miterlimit="8" fill="#C5E0B4"/><rect x="367.5" y="136.5" width="38" height="19" stroke="#000000" stroke-width="1.33333" stroke-miterlimit="8" fill="#C5E0B4"/><rect x="405.5" y="136.5" width="38" height="19" stroke="#000000" stroke-width="1.33333" stroke-miterlimit="8" fill="#C5E0B4"/><rect x="443.5" y="136.5" width="38" height="19" stroke="#000000" stroke-width="1.33333" stroke-miterlimit="8" fill="#C5E0B4"/><rect x="594.5" y="136.5" width="38" height="19" stroke="#000000" stroke-width="1.33333" stroke-miterlimit="8" fill="#C5E0B4"/><rect x="632.5" y="136.5" width="38" height="19" stroke="#000000" stroke-width="1.33333" stroke-miterlimit="8" fill="#C5E0B4"/><rect x="670.5" y="136.5" width="38" height="19" stroke="#000000" stroke-width="1.33333" stroke-miterlimit="8" fill="#C5E0B4"/><text font-family="Segoe UI,Segoe UI_MSFontService,sans-serif" font-weight="400" font-size="21" transform="translate(35.9333 153)">Text #<tspan font-family="Cambria Math,Cambria Math_MSFontService,sans-serif" font-size="21" x="55.6333" y="0">ğ‘</tspan><tspan font-family="Cambria Math,Cambria Math_MSFontService,sans-serif" font-size="21" x="178.472" y="35">ğ‘</tspan><tspan font-family="Calibri,Calibri_MSFontService,sans-serif" font-size="21" x="195.272" y="35">hash values</tspan><tspan font-family="Cambria Math,Cambria Math_MSFontService,sans-serif" font-size="21" x="329.653" y="35">ğ‘</tspan><tspan font-family="Calibri,Calibri_MSFontService,sans-serif" font-size="21" x="346.453" y="35">hash values</tspan><tspan font-family="Cambria Math,Cambria Math_MSFontService,sans-serif" font-size="21" x="556.414" y="35">ğ‘</tspan><tspan font-family="Calibri,Calibri_MSFontService,sans-serif" font-size="21" x="573.214" y="35">hash values</tspan></text><path d="M141.5 34.2501 169 34.2501 169 29.5001 178.5 39.0001 169 48.5001 169 43.7501 141.5 43.7501Z" stroke="#2F528F" stroke-width="1.33333" stroke-miterlimit="8" fill="#4472C4" fill-rule="evenodd"/><path d="M141.5 70.2501 169 70.2501 169 65.5001 178.5 75.0001 169 84.5001 169 79.7501 141.5 79.7501Z" stroke="#2F528F" stroke-width="1.33333" stroke-miterlimit="8" fill="#4472C4" fill-rule="evenodd"/><path d="M141.5 141.25 169 141.25 169 136.5 178.5 146 169 155.5 169 150.75 141.5 150.75Z" stroke="#2F528F" stroke-width="1.33333" stroke-miterlimit="8" fill="#4472C4" fill-rule="evenodd"/><path d="M708.5 199.5C708.5 206.404 707.567 212 706.417 212L464.583 212C463.433 212 462.5 217.597 462.5 224.501 462.5 217.597 461.567 212 460.417 212L218.583 212C217.433 212 216.5 206.404 216.5 199.5" stroke="#000000" stroke-width="1.33333" stroke-miterlimit="8" fill="none" fill-rule="evenodd"/><text font-family="Cambria Math,Cambria Math_MSFontService,sans-serif" font-weight="400" font-size="21" transform="translate(420.953 254)">ğ‘Ÿ<tspan font-family="Calibri,Calibri_MSFontService,sans-serif" font-size="21" x="15.4667" y="0">buckets</tspan></text><path d="M728.5 29.5001C732.918 29.5001 736.5 30.097 736.5 30.8334L736.5 91.1667C736.5 91.9031 740.082 92.5001 744.5 92.5001 740.082 92.5001 736.5 93.097 736.5 93.8334L736.5 154.167C736.5 154.903 732.918 155.5 728.5 155.5" stroke="#000000" stroke-width="1.33333" stroke-miterlimit="8" fill="none" fill-rule="evenodd"/><text font-family="Cambria Math,Cambria Math_MSFontService,sans-serif" font-weight="400" font-size="24" transform="translate(759.036 100)">ğ‘<tspan font-family="Segoe UI,Segoe UI_MSFontService,sans-serif" font-size="21" x="-154.078" y="150">Total </tspan><tspan font-size="21" x="-103.611" y="150">4</tspan><tspan font-size="21" x="-91.7775" y="150">ğ‘ğ‘Ÿğ‘</tspan><tspan font-family="Segoe UI,Segoe UI_MSFontService,sans-serif" font-size="21" x="-48.0908" y="150">bytes</tspan><tspan font-size="21" x="-492.387" y="18">â‹®</tspan><tspan font-size="21" x="-341.206" y="18">â‹®</tspan><tspan font-size="21" x="-114.445" y="18">â‹®</tspan><tspan font-size="21" x="-232.382" y="-53">â‹¯</tspan><tspan font-size="21" x="-232.388" y="-19">â‹¯</tspan><tspan font-size="21" x="-232.273" y="53">â‹¯</tspan><tspan font-size="21" x="-229.734" y="18">â‹±</tspan></text></g></svg>