<svg width="960" height="720" xmlns="http://www.w3.org/2000/svg" xmlns:xlink="http://www.w3.org/1999/xlink" overflow="hidden"><defs><clipPath id="clip0"><rect x="0" y="0" width="960" height="720"/></clipPath></defs><g clip-path="url(#clip0)"><rect x="0" y="0" width="960" height="720" fill="#FFFFFF"/><path d="M743.167 336.5 743.167 593.614 741.833 593.614 741.833 336.5ZM746.5 592.28 742.5 600.28 738.5 592.28Z"/><path d="M441.167 335.5 441.167 588.074 439.833 588.074 439.833 335.5ZM444.5 586.741 440.5 594.741 436.5 586.741Z"/><path d="M0.671797 1.31789 1.19056 134.722-0.142764 134.727-0.661527 1.32308ZM-5.20754 9.0044-1.20304e-05-0.00308994 5.27741 8.96363C5.46417 9.28094 5.35834 9.68957 5.04102 9.87632 4.72371 10.0631 4.31509 9.95724 4.12833 9.63993L-0.569409 1.65814 0.582287 1.65366-4.05323 9.67175C-4.23752 9.9905-4.64531 10.0995-4.96406 9.91523-5.28281 9.73095-5.39183 9.32316-5.20754 9.0044ZM5.73657 127.04 0.529041 136.047-4.74839 127.08C-4.93514 126.763-4.82931 126.354-4.51199 126.168-4.19468 125.981-3.78606 126.087-3.5993 126.404L1.09844 134.386-0.0532585 134.39 4.58226 126.372C4.76655 126.053 5.17434 125.944 5.49309 126.129 5.81184 126.313 5.92086 126.721 5.73657 127.04Z" transform="matrix(-1 0 0 1 281.029 278.5)"/><path d="M0.668417 1.32886 1.18229 391.572-0.151042 391.573-0.664915 1.33062ZM-5.23068 8.99098-4.08623e-06-0.00308973 5.25434 8.97717C5.44028 9.29496 5.3334 9.70332 5.01561 9.88926 4.69782 10.0752 4.28946 9.96831 4.10353 9.65052L-0.573672 1.65667 0.578033 1.65515-4.0781 9.66129C-4.2632 9.97957-4.67127 10.0875-4.98954 9.90243-5.30782 9.71733-5.41579 9.30926-5.23068 8.99098ZM5.74806 383.911 0.517379 392.905-4.73697 383.925C-4.92291 383.607-4.81602 383.199-4.49823 383.013-4.18044 382.827-3.77209 382.934-3.58615 383.252L1.09105 391.246-0.0606574 391.247 4.59547 383.241C4.78057 382.923 5.18864 382.815 5.50692 383 5.8252 383.185 5.93316 383.593 5.74806 383.911Z" transform="matrix(-1 0 0 1 887.017 278.5)"/><path d="M0.668496 1.31577 1.1822 371.018-0.151132 371.02-0.664836 1.31762ZM-5.23003 8.99136-4.31692e-06-0.00308963 5.255 8.97679C5.44096 9.29457 5.3341 9.70293 5.01633 9.88889 4.69855 10.0749 4.29019 9.968 4.10423 9.65022L-0.573551 1.65671 0.578153 1.65511-4.07739 9.66159C-4.26247 9.97988-4.67053 10.0879-4.98883 9.90279-5.30712 9.71772-5.41511 9.30965-5.23003 8.99136ZM5.74741 363.353 0.51738 372.348-4.73762 363.368C-4.92358 363.05-4.81673 362.642-4.49895 362.456-4.18117 362.27-3.77281 362.377-3.58685 362.694L1.09093 370.688-0.0607778 370.69 4.59477 362.683C4.77985 362.365 5.18791 362.257 5.5062 362.442 5.82449 362.627 5.93248 363.035 5.74741 363.353Z" transform="matrix(-1 0 0 1 585.017 277.5)"/><path d="M138.167 335.5 138.167 429.498 136.833 429.498 136.833 335.5ZM141.5 428.165 137.5 436.165 133.5 428.165Z"/><path d="M887.167 146.5 887.167 240.357 885.833 240.357 885.833 146.5ZM890.5 239.024 886.5 247.024 882.5 239.024Z"/><path d="M743.167 146.5 743.167 240.498 741.833 240.498 741.833 146.5ZM746.5 239.165 742.5 247.165 738.5 239.165Z"/><path d="M585.167 146.5 585.167 240.357 583.833 240.357 583.833 146.5ZM588.5 239.024 584.5 247.024 580.5 239.024Z"/><path d="M441.167 146.5 441.167 240.498 439.833 240.498 439.833 146.5ZM444.5 239.165 440.5 247.165 436.5 239.165Z"/><path d="M282.167 147.5 282.167 241.357 280.833 241.357 280.833 147.5ZM285.5 240.024 281.5 248.024 277.5 240.024Z"/><path d="M138.167 147.5 138.167 241.498 136.833 241.498 136.833 147.5ZM141.5 240.165 137.5 248.165 133.5 240.165Z"/><rect x="42.5001" y="20.5001" width="271" height="91" stroke="#000000" stroke-width="1.33333" stroke-miterlimit="8" fill="#FFFFFF"/><text font-family="Consolas,Consolas_MSFontService,sans-serif" font-weight="400" font-size="16" transform="translate(51.9254 40)">{<tspan font-size="16" x="8.83333" y="0">text:"</tspan><tspan fill="#4472C4" font-size="16" x="61.8333" y="0">Madam</tspan><tspan fill="#4472C4" font-size="16" x="106" y="0">, I'm Adam.</tspan><tspan font-size="16" x="203.167" y="0">"}</tspan><tspan font-size="16" x="0" y="19">{</tspan><tspan font-size="16" x="8.83333" y="19">text:"Olson</tspan><tspan font-size="16" x="114.833" y="19">is in Oslo."}</tspan><tspan font-size="16" x="0" y="38">{</tspan><tspan font-size="16" x="8.83333" y="38">text:"</tspan><tspan fill="#4472C4" font-size="16" x="61.8333" y="38">Madam</tspan><tspan fill="#4472C4" font-size="16" x="106" y="38">, I'm Adam.</tspan><tspan font-size="16" x="203.167" y="38">"}</tspan><tspan font-size="16" x="0" y="58">{</tspan><tspan font-size="16" x="8.83333" y="58">text:"</tspan><tspan fill="#C00000" font-size="16" x="61.8333" y="58">Was</tspan><tspan fill="#C00000" font-size="16" x="97.1667" y="58">it a cat I saw?</tspan><tspan font-size="16" x="229.667" y="58">"}</tspan></text><rect x="248.5" y="247.5" width="65" height="31" stroke="#000000" stroke-width="1.33333" stroke-miterlimit="8" fill="#FFFFFF"/><text font-family="Courier New,Courier New_MSFontService,sans-serif" font-weight="400" font-size="16" transform="translate(257.975 266)">1111</text><rect x="248.5" y="414.5" width="65" height="30" stroke="#000000" stroke-width="1.33333" stroke-miterlimit="8" fill="#FFFFFF"/><text font-family="Courier New,Courier New_MSFontService,sans-serif" font-weight="400" font-size="16" transform="translate(257.446 432)">11<tspan fill="#FF0000" font-size="16" x="19.3333" y="0">0</tspan><tspan font-size="16" x="29" y="0">1</tspan></text><rect x="42.5001" y="247.5" width="190" height="89" stroke="#000000" stroke-width="1.33333" stroke-miterlimit="8" fill="#E2F0D9"/><text fill="#4472C4" font-family="Consolas,Consolas_MSFontService,sans-serif" font-weight="400" font-size="16" transform="translate(51.9254 267)">6b7c<tspan font-size="16" x="44.1667" y="0">11d7 d2c1 7414</tspan><tspan fill="#000000" font-size="16" x="0" y="19">40f1 1865 184c df05</tspan><tspan font-size="16" x="0" y="38">6b7c</tspan><tspan font-size="16" x="44.1667" y="38">11d7 d2c1 7414</tspan><tspan fill="#C00000" font-size="16" x="0" y="58">3561 bf3a 522f c4c3</tspan></text><rect x="42.5001" y="414.5" width="190" height="72" stroke="#000000" stroke-width="1.33333" stroke-miterlimit="8" fill="#FFF2CC"/><text fill="#C00000" font-family="Consolas,Consolas_MSFontService,sans-serif" font-weight="400" font-size="16" transform="translate(51.9254 434)">3561<tspan fill="#4472C4" font-size="16" x="44.1667" y="0">11d7</tspan><tspan fill="#000000" font-size="16" x="88.3333" y="0">184c </tspan><tspan fill="#4472C4" font-size="16" x="132.5" y="0">7414</tspan><tspan fill="#000000" font-size="16" x="0" y="19">40f1 1865 </tspan><tspan font-size="16" x="88.3333" y="19">522f</tspan><tspan font-size="16" x="132.5" y="19">c4c3</tspan><tspan fill="#4472C4" font-size="16" x="0" y="38">6b7c</tspan><tspan font-size="16" x="44.1667" y="38">bf3a</tspan><tspan fill="#4472C4" font-size="16" x="88.3333" y="38">d2c1</tspan><tspan fill="#000000" font-size="16" x="132.5" y="38">df05</tspan></text><path d="M42.5001 178.167C42.5001 172.828 46.828 168.5 52.1667 168.5L303.833 168.5C309.172 168.5 313.5 172.828 313.5 178.167L313.5 216.833C313.5 222.172 309.172 226.5 303.833 226.5L52.1667 226.5C46.828 226.5 42.5001 222.172 42.5001 216.833Z" stroke="#000000" stroke-width="1.33333" stroke-miterlimit="8" fill="#DEEBF7" fill-rule="evenodd"/><text font-family="Segoe UI,Segoe UI_MSFontService,sans-serif" font-weight="400" font-size="21" transform="translate(102.842 192)">doubri<tspan font-size="21" x="62.1667" y="0">-</tspan>minhash<tspan font-size="21" x="13.5" y="25">&amp; </tspan><tspan font-size="21" x="36.3333" y="25">doubri</tspan>-init</text><path d="M42.5001 365.5C42.5001 362.739 44.7387 360.5 47.5001 360.5L308.5 360.5C311.261 360.5 313.5 362.739 313.5 365.5L313.5 385.5C313.5 388.261 311.261 390.5 308.5 390.5L47.5001 390.5C44.7387 390.5 42.5001 388.261 42.5001 385.5Z" stroke="#000000" stroke-width="1.33333" stroke-miterlimit="8" fill="#DEEBF7" fill-rule="evenodd"/><text font-family="Segoe UI,Segoe UI_MSFontService,sans-serif" font-weight="400" font-size="21" transform="translate(126.509 383)">doubri<tspan font-size="21" x="62.1667" y="0">-</tspan>self</text><path d="M346.5 435.167C346.5 430.933 349.933 427.5 354.167 427.5L911.833 427.5C916.067 427.5 919.5 430.933 919.5 435.167L919.5 465.833C919.5 470.067 916.067 473.5 911.833 473.5L354.167 473.5C349.933 473.5 346.5 470.067 346.5 465.833Z" stroke="#000000" stroke-width="1.33333" stroke-miterlimit="8" fill="#DEEBF7" fill-rule="evenodd"/><text font-family="Segoe UI,Segoe UI_MSFontService,sans-serif" font-weight="400" font-size="21" transform="translate(438.415 459)">doubri<tspan font-size="21" x="62.1667" y="0">-</tspan>other (multi<tspan font-size="21" x="181.167" y="0">-</tspan>thread on #2 and #3)<tspan font-size="21" x="-356.367" y="-322">Document group #1</tspan></text><rect x="346.5" y="20.5001" width="271" height="91" stroke="#000000" stroke-width="1.33333" stroke-miterlimit="8" fill="#FFFFFF"/><text font-family="Consolas,Consolas_MSFontService,sans-serif" font-weight="400" font-size="16" transform="translate(355.294 40)">{<tspan font-size="16" x="8.83334" y="0">text:"</tspan><tspan fill="#385723" font-size="16" x="61.8333" y="0">Do</tspan><tspan fill="#385723" font-size="16" x="88.3333" y="0">geese see God?</tspan><tspan font-size="16" x="212" y="0">"}</tspan><tspan font-size="16" x="0" y="19">{</tspan><tspan font-size="16" x="8.83334" y="19">text:"</tspan><tspan fill="#C00000" font-size="16" x="61.8333" y="19">Was</tspan><tspan fill="#C00000" font-size="16" x="97.1667" y="19">it a cat I saw?</tspan><tspan font-size="16" x="229.667" y="19">"}</tspan><tspan font-size="16" x="0" y="38">{</tspan><tspan font-size="16" x="8.83334" y="38">text</tspan><tspan font-size="16" x="44.1667" y="38">:"</tspan><tspan fill="#385723" font-size="16" x="61.8333" y="38">Do</tspan><tspan fill="#385723" font-size="16" x="88.3333" y="38">geese see God?</tspan><tspan font-size="16" x="212" y="38">"}</tspan><tspan font-size="16" x="0" y="58">{</tspan><tspan font-size="16" x="8.83334" y="58">text:"</tspan><tspan fill="#202122" font-family="Arial,Arial_MSFontService,sans-serif" font-size="16" x="61.8333" y="58">UFO</tspan><tspan fill="#202122" font-family="Arial,Arial_MSFontService,sans-serif" font-size="16" x="100.167" y="58">tofu!</tspan><tspan font-size="16" x="131.333" y="58">"}</tspan><tspan font-family="Segoe UI,Segoe UI_MSFontService,sans-serif" font-size="21" x="30.1226" y="97">Document group #2</tspan></text><rect x="648.5" y="20.5001" width="271" height="91" stroke="#000000" stroke-width="1.33333" stroke-miterlimit="8" fill="#FFFFFF"/><text font-family="Consolas,Consolas_MSFontService,sans-serif" font-weight="400" font-size="16" transform="translate(657.276 40)">{<tspan font-size="16" x="8.83331" y="0">text:"If</tspan><tspan font-size="16" x="88.3333" y="0">I had a hi</tspan><tspan font-size="16" x="176.667" y="0">-</tspan><tspan font-size="16" x="185.5" y="0">fi,"}</tspan><tspan font-size="16" x="0" y="19">{</tspan><tspan font-size="16" x="8.83331" y="19">text:"</tspan><tspan fill="#4472C4" font-size="16" x="61.8333" y="19">Madam</tspan><tspan fill="#4472C4" font-size="16" x="106" y="19">, I'm Adam.</tspan><tspan font-size="16" x="203.167" y="19">"}</tspan><tspan font-size="16" x="0" y="38">{</tspan><tspan font-size="16" x="8.83331" y="38">text:"Never</tspan><tspan font-size="16" x="114.833" y="38">odd or even."}</tspan><tspan font-size="16" x="0" y="58">{</tspan><tspan font-size="16" x="8.83331" y="58">text:"</tspan><tspan fill="#385723" font-size="16" x="61.8333" y="58">Do</tspan><tspan fill="#385723" font-size="16" x="88.3333" y="58">geese see God?</tspan>"}<tspan font-family="Segoe UI,Segoe UI_MSFontService,sans-serif" font-size="21" x="30.1226" y="97">Document group #3</tspan></text><rect x="552.5" y="247.5" width="65" height="30" stroke="#000000" stroke-width="1.33333" stroke-miterlimit="8" fill="#FFFFFF"/><text font-family="Courier New,Courier New_MSFontService,sans-serif" font-weight="400" font-size="16" transform="translate(561.343 266)">1111</text><rect x="346.5" y="247.5" width="189" height="88" stroke="#000000" stroke-width="1.33333" stroke-miterlimit="8" fill="#E2F0D9"/><text fill="#385723" font-family="Consolas,Consolas_MSFontService,sans-serif" font-weight="400" font-size="16" transform="translate(355.294 267)">7ea9 66dd 4019 0bb7<tspan fill="#C00000" font-size="16" x="0" y="19">3561 bf3a 522f c4c3</tspan><tspan font-size="16" x="0" y="38">7ea9 66dd 4019 0bb7</tspan><tspan fill="#000000" font-size="16" x="0" y="58">6abf d548 51e7 </tspan><tspan fill="#000000" font-size="16" x="132.5" y="58">4aaa</tspan></text><rect x="854.5" y="247.5" width="65" height="31" stroke="#000000" stroke-width="1.33333" stroke-miterlimit="8" fill="#FFFFFF"/><text font-family="Courier New,Courier New_MSFontService,sans-serif" font-weight="400" font-size="16" transform="translate(863.326 266)">1111</text><rect x="648.5" y="247.5" width="189" height="89" stroke="#000000" stroke-width="1.33333" stroke-miterlimit="8" fill="#E2F0D9"/><text font-family="Consolas,Consolas_MSFontService,sans-serif" font-weight="400" font-size="16" transform="translate(657.276 267)">60c3 f121 297a 1f11<tspan fill="#4472C4" font-size="16" x="0" y="19">6b7c</tspan><tspan fill="#4472C4" font-size="16" x="44.1666" y="19">11d7 d2c1 7414</tspan><tspan font-size="16" x="0" y="38">04b7 9505 ba4a e354</tspan><tspan fill="#385723" font-size="16" x="0" y="58">7ea9 66dd 4019 0bb7</tspan></text><path d="M346.5 178.167C346.5 172.828 350.828 168.5 356.167 168.5L607.833 168.5C613.172 168.5 617.5 172.828 617.5 178.167L617.5 216.833C617.5 222.172 613.172 226.5 607.833 226.5L356.167 226.5C350.828 226.5 346.5 222.172 346.5 216.833Z" stroke="#000000" stroke-width="1.33333" stroke-miterlimit="8" fill="#DEEBF7" fill-rule="evenodd"/><text font-family="Segoe UI,Segoe UI_MSFontService,sans-serif" font-weight="400" font-size="21" transform="translate(406.21 192)">doubri<tspan font-size="21" x="62.1667" y="0">-</tspan>minhash<tspan font-size="21" x="13.5" y="25">&amp; </tspan><tspan font-size="21" x="36.3333" y="25">doubri</tspan><tspan font-size="21" x="98.5" y="25">-</tspan><tspan font-size="21" x="107" y="25">init</tspan></text><path d="M647.5 178C647.5 172.753 651.753 168.5 657 168.5L909 168.5C914.247 168.5 918.5 172.753 918.5 178L918.5 216C918.5 221.247 914.247 225.5 909 225.5L657 225.5C651.753 225.5 647.5 221.247 647.5 216Z" stroke="#000000" stroke-width="1.33333" stroke-miterlimit="8" fill="#DEEBF7" fill-rule="evenodd"/><text font-family="Segoe UI,Segoe UI_MSFontService,sans-serif" font-weight="400" font-size="21" transform="translate(707.675 192)">doubri<tspan font-size="21" x="62.1667" y="0">-</tspan>minhash<tspan font-size="21" x="13.5" y="25">&amp; </tspan><tspan font-size="21" x="36.3334" y="25">doubri</tspan><tspan font-size="21" x="98.5" y="25">-</tspan>init</text><path d="M232.502 449.833 340.183 450.135 340.179 451.468 232.498 451.167ZM338.859 446.798 346.847 450.82 338.836 454.798Z"/><rect x="552.5" y="491.5" width="65" height="31" stroke="#000000" stroke-width="1.33333" stroke-miterlimit="8" fill="#FFFFFF"/><text font-family="Courier New,Courier New_MSFontService,sans-serif" font-weight="400" font-size="16" transform="translate(561.343 510)">1<tspan fill="#FF0000" font-size="16" x="9.66663" y="0">0</tspan><tspan font-size="16" x="19.3333" y="0">11</tspan></text><rect x="853.5" y="491.5" width="65" height="31" stroke="#000000" stroke-width="1.33333" stroke-miterlimit="8" fill="#FFFFFF"/><text font-family="Courier New,Courier New_MSFontService,sans-serif" font-weight="400" font-size="16" transform="translate(862.808 510)">1<tspan fill="#FF0000" font-size="16" x="9.66669" y="0">0</tspan><tspan font-size="16" x="19.3333" y="0">11</tspan></text><path d="M346.5 548.5C346.5 545.739 348.739 543.5 351.5 543.5L612.5 543.5C615.261 543.5 617.5 545.739 617.5 548.5L617.5 568.5C617.5 571.261 615.261 573.5 612.5 573.5L351.5 573.5C348.739 573.5 346.5 571.261 346.5 568.5Z" stroke="#000000" stroke-width="1.33333" stroke-miterlimit="8" fill="#DEEBF7" fill-rule="evenodd"/><text font-family="Segoe UI,Segoe UI_MSFontService,sans-serif" font-weight="400" font-size="21" transform="translate(429.877 566)">doubri<tspan font-size="21" x="62.1667" y="0">-</tspan>self</text><rect x="551.5" y="649.5" width="65" height="31" stroke="#000000" stroke-width="1.33333" stroke-miterlimit="8" fill="#FFFFFF"/><text font-family="Courier New,Courier New_MSFontService,sans-serif" font-weight="400" font-size="16" transform="translate(560.826 668)">10<tspan fill="#FF0000" font-size="16" x="19.3333" y="0">0</tspan><tspan font-size="16" x="29" y="0">1</tspan></text><rect x="346.5" y="594.5" width="189" height="58" stroke="#000000" stroke-width="1.33333" stroke-miterlimit="8" fill="#FFF2CC"/><text font-family="Consolas,Consolas_MSFontService,sans-serif" font-weight="400" font-size="16" transform="translate(355.294 614)">6abf <tspan fill="#385723" font-size="16" x="44.1667" y="0">66dd </tspan><tspan fill="#385723" font-size="16" x="88.3333" y="0">4019 0bb7</tspan><tspan fill="#385723" font-size="16" x="0" y="19">7ea9 </tspan><tspan font-size="16" x="44.1667" y="19">d548 51e7 </tspan>4aaa</text><path d="M648.5 607.167C648.5 602.933 651.933 599.5 656.167 599.5L912.833 599.5C917.068 599.5 920.5 602.933 920.5 607.167L920.5 637.833C920.5 642.068 917.068 645.5 912.833 645.5L656.167 645.5C651.933 645.5 648.5 642.068 648.5 637.833Z" stroke="#000000" stroke-width="1.33333" stroke-miterlimit="8" fill="#DEEBF7" fill-rule="evenodd"/><text font-family="Segoe UI,Segoe UI_MSFontService,sans-serif" font-weight="400" font-size="21" transform="translate(693.03 630)">doubri<tspan font-size="21" x="62.1667" y="0">-</tspan>other <tspan font-size="21" x="126.833" y="0">on #3</tspan></text><path d="M0.00517364-0.666647 105.811 0.154478 105.8 1.48777-0.00517364 0.666647ZM104.503-3.1891 112.472 0.872861 104.441 4.81066Z" transform="matrix(1 0 0 -1 535.5 623.373)"/><rect x="853.5" y="670.5" width="65" height="31" stroke="#000000" stroke-width="1.33333" stroke-miterlimit="8" fill="#FFFFFF"/><text font-family="Courier New,Courier New_MSFontService,sans-serif" font-weight="400" font-size="16" transform="translate(862.808 689)">101<tspan fill="#FF0000" font-size="16" x="29" y="0">0</tspan><tspan font-family="Segoe UI,Segoe UI_MSFontService,sans-serif" font-size="21" x="-810.412" y="-169">Index of </tspan><tspan font-family="Segoe UI,Segoe UI_MSFontService,sans-serif" font-size="21" x="-728.798" y="-169">group #1</tspan><tspan font-family="Segoe UI,Segoe UI_MSFontService,sans-serif" font-size="21" x="-506.751" y="-3">Index of </tspan><tspan font-family="Segoe UI,Segoe UI_MSFontService,sans-serif" font-size="21" x="-425.137" y="-3">group </tspan><tspan font-family="Segoe UI,Segoe UI_MSFontService,sans-serif" font-size="21" x="-362.584" y="-3">#2</tspan></text></g></svg>