<svg width="960" height="560" xmlns="http://www.w3.org/2000/svg" xmlns:xlink="http://www.w3.org/1999/xlink" overflow="hidden"><defs><clipPath id="clip0"><rect x="0" y="0" width="960" height="720"/></clipPath></defs><g clip-path="url(#clip0)"><rect x="0" y="0" width="960" height="720" fill="#FFFFFF"/><path d="M0.666667-2.2684e-07 0.666769 301.882-0.666564 301.882-0.666667 2.2684e-07ZM4.0001 300.549 0.000104987 308.549-3.9999 300.549Z" transform="matrix(1 0 0 -1 647.5 459.049)"/><path d="M0.66665-0.00467875 1.16705 71.2953-0.166246 71.3047-0.66665 0.00467875ZM4.49095 69.9385 0.547192 77.9664-3.50885 69.9947Z" transform="matrix(-1 0 0 1 183.047 380.5)"/><path d="M215.5 472.833 608.037 472.833 608.037 474.167 215.5 474.167ZM606.703 469.5 614.703 473.5 606.703 477.5Z"/><path d="M0.000981678-0.666666 414.845-0.0558008 414.843 1.27753-0.000981678 0.666666ZM413.516-3.39109 421.511 0.620682 413.505 4.6089Z" transform="matrix(1 0 0 -1 292.5 292.121)"/><path d="M183.167 162.496 183.554 232.452 182.221 232.46 181.833 162.504ZM186.88 231.101 182.924 239.123 178.88 231.145Z"/><rect x="27.5001" y="21.5001" width="311" height="105" stroke="#000000" stroke-width="1.33333" stroke-miterlimit="8" fill="#FFFFFF"/><text font-family="Consolas,Consolas_MSFontService,sans-serif" font-weight="400" font-size="19" transform="translate(36.7138 43)">{<tspan font-size="19" x="10.3333" y="0">text:"Madam</tspan><tspan font-size="19" x="124" y="0">, I'm Adam."}</tspan><tspan font-size="19" x="0" y="22">{</tspan><tspan font-size="19" x="10.3333" y="22">text:"Olson</tspan><tspan font-size="19" x="134.333" y="22">is in Oslo."}</tspan><tspan font-size="19" x="0" y="44">{</tspan><tspan font-size="19" x="10.3333" y="44">text:"Madam</tspan><tspan font-size="19" x="124" y="44">, I'm Adam."}</tspan><tspan font-size="19" x="0" y="67">{</tspan><tspan font-size="19" x="10.3333" y="67">text:"Was</tspan><tspan font-size="19" x="113.667" y="67">it a cat I saw?"}</tspan></text><rect x="150.5" y="458.5" width="65" height="31" stroke="#000000" stroke-width="1.33333" stroke-miterlimit="8" fill="#FFFFFF"/><text font-family="Courier New,Courier New_MSFontService,sans-serif" font-weight="400" font-size="19" transform="translate(159.691 479)">1111</text><rect x="614.5" y="458.5" width="65" height="31" stroke="#000000" stroke-width="1.33333" stroke-miterlimit="8" fill="#FFFFFF"/><text font-family="Courier New,Courier New_MSFontService,sans-serif" font-weight="400" font-size="19" transform="translate(623.878 479)">11<tspan fill="#FF0000" font-size="19" x="22.3333" y="0">0</tspan><tspan font-size="19" x="33.5" y="0">1</tspan></text><rect x="73.5001" y="239.5" width="219" height="105" stroke="#000000" stroke-width="1.33333" stroke-miterlimit="8" fill="#E2F0D9"/><text font-family="Consolas,Consolas_MSFontService,sans-serif" font-weight="400" font-size="19" transform="translate(82.7366 261)">6b7c<tspan font-size="19" x="51.6667" y="0">11d7 d2c1 7414</tspan><tspan font-size="19" x="0" y="22">40f1 1865 184c df05</tspan><tspan font-size="19" x="0" y="44">6b7c</tspan><tspan font-size="19" x="51.6667" y="44">11d7 d2c1 7414</tspan><tspan font-size="19" x="0" y="67">3561 bf3a 522f c4c3</tspan></text><rect x="714.5" y="250.5" width="219" height="82" stroke="#000000" stroke-width="1.33333" stroke-miterlimit="8" fill="#FFF2CC"/><text font-family="Consolas,Consolas_MSFontService,sans-serif" font-weight="400" font-size="19" transform="translate(723.564 273)">3561 11d7 184c 7414<tspan font-size="19" x="0" y="22">40f1 1865 522f c4c3</tspan><tspan font-size="19" x="0" y="44">6b7c</tspan><tspan font-size="19" x="51.6666" y="44">bf3a d2c1 df05</tspan></text><path d="M96.5001 187.667C96.5001 184.813 98.8133 182.5 101.667 182.5L265.333 182.5C268.187 182.5 270.5 184.813 270.5 187.667L270.5 208.333C270.5 211.187 268.187 213.5 265.333 213.5L101.667 213.5C98.8133 213.5 96.5001 211.187 96.5001 208.333Z" stroke="#000000" stroke-width="1.33333" stroke-miterlimit="8" fill="#DEEBF7" fill-rule="evenodd"/><text font-family="Segoe UI,Segoe UI_MSFontService,sans-serif" font-weight="400" font-size="21" transform="translate(107.583 206)">doubri<tspan font-size="21" x="62.1667" y="0">-</tspan>minhash</text><path d="M95.5001 406.5C95.5001 403.739 97.7386 401.5 100.5 401.5L264.5 401.5C267.261 401.5 269.5 403.739 269.5 406.5L269.5 426.5C269.5 429.261 267.261 431.5 264.5 431.5L100.5 431.5C97.7386 431.5 95.5001 429.261 95.5001 426.5Z" stroke="#000000" stroke-width="1.33333" stroke-miterlimit="8" fill="#DEEBF7" fill-rule="evenodd"/><text font-family="Segoe UI,Segoe UI_MSFontService,sans-serif" font-weight="400" font-size="21" transform="translate(131.77 424)">doubri<tspan font-size="21" x="62.1667" y="0">-</tspan>init</text><path d="M353.5 255.752C353.5 246.776 360.776 239.5 369.752 239.5L524.248 239.5C533.224 239.5 540.5 246.776 540.5 255.752L540.5 500.248C540.5 509.224 533.224 516.5 524.248 516.5L369.752 516.5C360.776 516.5 353.5 509.224 353.5 500.248Z" stroke="#000000" stroke-width="1.33333" stroke-miterlimit="8" fill="#DEEBF7" fill-rule="evenodd"/><text font-family="Segoe UI,Segoe UI_MSFontService,sans-serif" font-weight="400" font-size="21" transform="translate(395.039 386)">doubri<tspan font-size="21" x="62.1667" y="0">-</tspan>self</text><path d="M560.5 188.5C560.5 185.739 562.739 183.5 565.5 183.5L729.5 183.5C732.261 183.5 734.5 185.739 734.5 188.5L734.5 208.5C734.5 211.261 732.261 213.5 729.5 213.5L565.5 213.5C562.739 213.5 560.5 211.261 560.5 208.5Z" stroke="#000000" stroke-width="1.33333" stroke-miterlimit="8" fill="#DEEBF7" fill-rule="evenodd"/><text font-family="Segoe UI,Segoe UI_MSFontService,sans-serif" font-weight="400" font-size="21" transform="translate(585.769 206)">doubri<tspan font-size="21" x="62.1666" y="0">-</tspan>apply</text><rect x="491.5" y="33.5001" width="311" height="81" stroke="#000000" stroke-width="1.33333" stroke-miterlimit="8" fill="#FFFFFF"/><text font-family="Consolas,Consolas_MSFontService,sans-serif" font-weight="400" font-size="19" transform="translate(500.85 55)">{<tspan font-size="19" x="10.3333" y="0">text:"Madam</tspan><tspan font-size="19" x="124" y="0">, I'm Adam."}</tspan><tspan font-size="19" x="0" y="22">{</tspan><tspan font-size="19" x="10.3333" y="22">text:"Olson</tspan><tspan font-size="19" x="134.333" y="22">is in Oslo."}</tspan><tspan font-size="19" x="0" y="44">{</tspan><tspan font-size="19" x="10.3333" y="44">text:"Was</tspan><tspan font-size="19" x="113.667" y="44">it a cat I saw?"}</tspan><tspan font-family="Calibri,Calibri_MSFontService,sans-serif" font-size="21" x="-430.889" y="96">Source documents (.</tspan><tspan font-family="Calibri,Calibri_MSFontService,sans-serif" font-size="21" x="-253.402" y="96">jsonl</tspan><tspan font-family="Calibri,Calibri_MSFontService,sans-serif" font-size="21" x="-212.569" y="96">)</tspan><tspan font-family="Calibri,Calibri_MSFontService,sans-serif" font-size="21" x="-389.032" y="315">MinHash</tspan><tspan font-family="Calibri,Calibri_MSFontService,sans-serif" font-size="21" x="-307.032" y="315">(.hash)</tspan><tspan font-family="Calibri,Calibri_MSFontService,sans-serif" font-size="21" x="-350.464" y="458">Flag (.f)</tspan><tspan font-family="Calibri,Calibri_MSFontService,sans-serif" font-size="21" x="75.6032" y="458">Updated flag (.f)</tspan><tspan font-family="Calibri,Calibri_MSFontService,sans-serif" font-size="21" x="5.82327" y="84">Deduplicated documents (.</tspan><tspan font-family="Calibri,Calibri_MSFontService,sans-serif" font-size="21" x="238.683" y="84">jsonl</tspan><tspan font-family="Calibri,Calibri_MSFontService,sans-serif" font-size="21" x="279.517" y="84">)</tspan><tspan font-family="Calibri,Calibri_MSFontService,sans-serif" font-size="21" x="218.647" y="301">Sorted </tspan><tspan font-family="Calibri,Calibri_MSFontService,sans-serif" font-size="21" x="280.92" y="301">MinHash</tspan><tspan font-family="Calibri,Calibri_MSFontService,sans-serif" font-size="21" x="362.92" y="301">(.index)</tspan></text><path d="M338.5 72.8334 343.834 72.8356 343.833 74.1689 338.5 74.1667ZM347.834 72.8372 353.167 72.8394 353.166 74.1727 347.833 74.1705ZM357.167 72.841 362.5 72.8432 362.5 74.1765 357.166 74.1743ZM366.5 72.8448 371.834 72.847 371.833 74.1803 366.5 74.1781ZM375.834 72.8486 381.167 72.8508 381.166 74.1841 375.833 74.1819ZM385.167 72.8524 390.5 72.8546 390.5 74.1879 385.166 74.1857ZM394.5 72.8562 399.834 72.8584 399.833 74.1917 394.5 74.1895ZM403.834 72.86 409.167 72.8622 409.166 74.1955 403.833 74.1933ZM413.167 72.8638 418.5 72.866 418.5 74.1993 413.166 74.1971ZM422.5 72.8676 427.834 72.8698 427.833 74.2031 422.5 74.2009ZM431.834 72.8714 437.167 72.8736 437.166 74.2069 431.833 74.2047ZM441.167 72.8752 446.5 72.8774 446.5 74.2107 441.166 74.2085ZM450.5 72.879 455.834 72.8812 455.833 74.2145 450.5 74.2123ZM459.834 72.8828 465.167 72.885 465.166 74.2183 459.833 74.2161ZM469.167 72.8866 474.5 72.8888 474.5 74.2221 469.166 74.2199ZM478.5 72.8904 483.834 72.8926 483.833 74.2259 478.5 74.2237ZM483.598 69.5592 491.596 73.5624 483.594 77.5592Z"/><path d="M338.5 72.8334 423.48 72.8334 423.48 198.144 422.813 197.478 553.425 197.478 553.425 198.811 422.147 198.811 422.147 73.5001 422.813 74.1667 338.5 74.1667ZM552.092 194.144 560.092 198.144 552.092 202.144Z"/></g></svg>